<svg id="Layer_1" data-name="Layer 1" xmlns="http://www.w3.org/2000/svg" viewBox="0 0 750 1475.55"><defs><style>.cls-1{fill:#2d3a3a;}.cls-2{fill:#040f0f;}.cls-3{fill:#2ba84a;}</style></defs><title>shuffleIcon</title><rect id="bg" class="cls-1" y="141.55" width="750" height="1334"/><rect class="cls-2" y="141.3" width="750" height="150.42"/><path class="cls-3" d="M339.26,114v.13a.81.81,0,0,1,0,.11.39.39,0,0,1,0-.11A.37.37,0,0,1,339.26,114Z" transform="translate(-265.31 141.55)"/><path class="cls-3" d="M336.95,116.28v.17a.74.74,0,0,1,0,.1.37.37,0,0,1,0-.13A.46.46,0,0,1,336.95,116.28Z" transform="translate(-265.31 141.55)"/><path class="cls-3" d="M339.72,73.63H314.59A2.81,2.81,0,0,0,311.82,76a2.81,2.81,0,0,0-2.32,2.31,2.82,2.82,0,0,0-2.4,2.78v35.39a2.82,2.82,0,0,0,2.81,2.81h25.21a2.81,2.81,0,0,0,2.78-2.38,2.8,2.8,0,0,0,2.3-2.31,2.82,2.82,0,0,0,2.36-2.77V76.43A2.83,2.83,0,0,0,339.72,73.63Zm-2.77,42.83a.74.74,0,0,1,0,.1,1.82,1.82,0,0,1-1.81,1.71H309.92a1.82,1.82,0,0,1-1.82-1.81V81.07a1.82,1.82,0,0,1,1.82-1.82h25.21a1.82,1.82,0,0,1,1.82,1.82Zm1-.6V81.07a2.82,2.82,0,0,0-2.81-2.81h-24.6a1.81,1.81,0,0,1,1.75-1.32H337.4a1.86,1.86,0,0,1,1.86,1.81v35.38a.81.81,0,0,1,0,.11A1.83,1.83,0,0,1,337.94,115.85Zm3.63-4a1.85,1.85,0,0,1-1.32,1.74V78.74a2.83,2.83,0,0,0-2.85-2.8H312.85a1.82,1.82,0,0,1,1.74-1.31h25.13a1.86,1.86,0,0,1,1.86,1.81Z" transform="translate(-265.31 141.55)"/><path class="cls-3" d="M332.7,80.72H311.46a2,2,0,0,0-1.89,2.15v31.71a1.9,1.9,0,0,0,1.89,2H332.7a1.88,1.88,0,0,0,1.85-2V82.86A2,2,0,0,0,332.7,80.72Zm-8.06,21.66a2.38,2.38,0,0,1-1-.22c-.25-.11-.25-.06,0,0l.8.86a.58.58,0,0,1-.39,1h-3a.56.56,0,0,1-.43-.94l.84-.93c.22-.1.21-.15,0,0l0,0h0a2.41,2.41,0,0,1-3.42-2.2,2.42,2.42,0,0,1,2.22-2.41,2.34,2.34,0,0,1-.13-.78,2.4,2.4,0,0,1,2.41-2.41A2.46,2.46,0,0,1,325,96.82a2.84,2.84,0,0,1-.11.76v0a2.5,2.5,0,0,1,2.19,2.41A2.42,2.42,0,0,1,324.64,102.37Z" transform="translate(-265.31 141.55)"/><path class="cls-3" d="M361.53,92A35.49,35.49,0,0,0,358,80a1.53,1.53,0,0,0-1.87-.66,1.49,1.49,0,0,0-.66,1.87,35,35,0,0,1,3.28,11,34.12,34.12,0,0,1-56.27,29.87h.19a1.4,1.4,0,0,0,0-2.81h-5.06v5.15a1.4,1.4,0,0,0,2.81,0v-.37a37,37,0,0,0,24.53,9.27,33.26,33.26,0,0,0,4.31-.28A36.92,36.92,0,0,0,361.53,92Z" transform="translate(-265.31 141.55)"/><path class="cls-3" d="M290.94,100.46a34,34,0,0,1,7.12-25.19,34.1,34.1,0,0,1,49.15-4.59H347a1.4,1.4,0,0,0,0,2.81h5.06V68.34a1.4,1.4,0,1,0-2.81,0v.37a37,37,0,0,0-28.84-9,36.51,36.51,0,0,0-24.62,13.86,37,37,0,0,0-7.68,27.25,37.76,37.76,0,0,0,3.46,11.89,1.46,1.46,0,0,0,1.22.75,1,1,0,0,0,.66-.19,1.43,1.43,0,0,0,.66-1.87A31.48,31.48,0,0,1,290.94,100.46Z" transform="translate(-265.31 141.55)"/><path d="M381.07-87v.13a.81.81,0,0,1,0,.11.39.39,0,0,1,0-.11A.37.37,0,0,1,381.07-87Z" transform="translate(-265.31 141.55)"/><path d="M378.76-84.72v.17a.74.74,0,0,1,0,.1.37.37,0,0,1,0-.13A.46.46,0,0,1,378.76-84.72Z" transform="translate(-265.31 141.55)"/><path d="M381.53-127.37H356.4a2.81,2.81,0,0,0-2.77,2.35,2.81,2.81,0,0,0-2.32,2.31,2.82,2.82,0,0,0-2.4,2.78v35.39a2.82,2.82,0,0,0,2.81,2.81h25.21a2.81,2.81,0,0,0,2.78-2.38,2.8,2.8,0,0,0,2.3-2.31,2.82,2.82,0,0,0,2.36-2.77v-35.37A2.83,2.83,0,0,0,381.53-127.37Zm-2.77,42.83a.74.74,0,0,1,0,.1,1.82,1.82,0,0,1-1.81,1.71H351.73a1.82,1.82,0,0,1-1.82-1.81v-35.39a1.82,1.82,0,0,1,1.82-1.82h25.21a1.82,1.82,0,0,1,1.82,1.82Zm1-.6v-34.78a2.82,2.82,0,0,0-2.81-2.81h-24.6a1.81,1.81,0,0,1,1.75-1.32h25.12a1.86,1.86,0,0,1,1.86,1.81v35.38a.81.81,0,0,1,0,.11A1.83,1.83,0,0,1,379.75-85.15Zm3.63-4a1.85,1.85,0,0,1-1.32,1.74v-34.8a2.83,2.83,0,0,0-2.85-2.8H354.66a1.82,1.82,0,0,1,1.74-1.31h25.13a1.86,1.86,0,0,1,1.86,1.81Z" transform="translate(-265.31 141.55)"/><path d="M374.51-120.28H353.27a2,2,0,0,0-1.89,2.15v31.71a1.9,1.9,0,0,0,1.89,2h21.24a1.88,1.88,0,0,0,1.85-2v-31.71A2,2,0,0,0,374.51-120.28Zm-8.06,21.66a2.38,2.38,0,0,1-1-.22c-.25-.11-.25-.06,0,0l.8.86a.58.58,0,0,1,.19.43.58.58,0,0,1-.58.58h-3a.57.57,0,0,1-.53-.33.57.57,0,0,1,.09-.61l.84-.93c.22-.1.21-.15,0,0l0,0h0a2.4,2.4,0,0,1-1,.22,2.42,2.42,0,0,1-2.43-2.42,2.42,2.42,0,0,1,2.22-2.41,2.34,2.34,0,0,1-.13-.78,2.4,2.4,0,0,1,2.41-2.41,2.46,2.46,0,0,1,2.43,2.46,2.84,2.84,0,0,1-.11.76v0a2.5,2.5,0,0,1,2.19,2.41A2.42,2.42,0,0,1,366.45-98.63Z" transform="translate(-265.31 141.55)"/><path d="M403.34-109a35.49,35.49,0,0,0-3.56-12,1.53,1.53,0,0,0-1.87-.66,1.49,1.49,0,0,0-.66,1.87,35,35,0,0,1,3.28,11,34,34,0,0,1-7.12,25.19,33.63,33.63,0,0,1-22.75,12.83,34.26,34.26,0,0,1-26.4-8.15h.19a1.44,1.44,0,0,0,1.4-1.4,1.44,1.44,0,0,0-1.4-1.4H339.4v5.15a1.44,1.44,0,0,0,1.4,1.4,1.44,1.44,0,0,0,1.4-1.4v-.37a37,37,0,0,0,24.53,9.27,33.26,33.26,0,0,0,4.31-.28A36.92,36.92,0,0,0,403.34-109Z" transform="translate(-265.31 141.55)"/><path d="M332.75-100.54a34,34,0,0,1,7.12-25.19,33.51,33.51,0,0,1,22.75-12.73,33.79,33.79,0,0,1,26.4,8.15h-.19a1.44,1.44,0,0,0-1.4,1.4,1.44,1.44,0,0,0,1.4,1.4h5.06v-5.15a1.44,1.44,0,0,0-1.4-1.4,1.44,1.44,0,0,0-1.4,1.4v.37a37,37,0,0,0-28.84-9,36.51,36.51,0,0,0-24.62,13.86,37,37,0,0,0-7.68,27.25,37.76,37.76,0,0,0,3.46,11.89,1.46,1.46,0,0,0,1.22.75,1,1,0,0,0,.66-.19,1.43,1.43,0,0,0,.66-1.87A31.48,31.48,0,0,1,332.75-100.54Z" transform="translate(-265.31 141.55)"/><path class="cls-3" d="M940.29,123.46,943.4,122a19.79,19.79,0,0,0,6.72,3.86l.34,3.36a2.46,2.46,0,0,0,2.43,2.27h6.72a2.46,2.46,0,0,0,2.43-2.27l.34-3.36a19.79,19.79,0,0,0,6.72-3.86l3.11,1.43a2.54,2.54,0,0,0,3.19-1l3.36-5.88a2.43,2.43,0,0,0-.76-3.27l-2.77-1.93a18,18,0,0,0,0-7.72l2.77-1.93a2.61,2.61,0,0,0,.76-3.27l-3.36-5.88a2.54,2.54,0,0,0-3.19-1L969,93.07a19.79,19.79,0,0,0-6.72-3.86L962,85.85a2.46,2.46,0,0,0-2.43-2.27H952.8a2.46,2.46,0,0,0-2.43,2.27L950,89.21a19.79,19.79,0,0,0-6.72,3.86l-3.11-1.43a2.54,2.54,0,0,0-3.19,1l-3.36,5.88a2.43,2.43,0,0,0,.76,3.27l2.77,1.93a18,18,0,0,0,0,7.72l-2.77,1.93a2.61,2.61,0,0,0-.76,3.27l3.36,5.88A2.75,2.75,0,0,0,940.29,123.46Zm15.87-26.53A10.66,10.66,0,1,1,945.5,107.6,10.68,10.68,0,0,1,956.16,96.93Z" transform="translate(-265.31 141.55)"/><path class="cls-3" d="M990.66,68.81l-2.27-.17a12,12,0,0,0-1.09-2.35,13.78,13.78,0,0,0-1.6-2.1l.92-2.1a1.77,1.77,0,0,0-.76-2.18l-4-2.18a1.7,1.7,0,0,0-2.18.5l-1.26,1.93a13.58,13.58,0,0,0-5.21.08l-1.34-1.85a1.61,1.61,0,0,0-2.18-.42l-4,2.35a1.74,1.74,0,0,0-.67,2.18l1,2.1a12.43,12.43,0,0,0-2.52,4.62l-2.27.17a1.72,1.72,0,0,0-1.51,1.68l.08,4.62a1.72,1.72,0,0,0,1.6,1.68l2.27.17a12,12,0,0,0,1.09,2.35,9.89,9.89,0,0,0,1.6,2.1l-.92,2.1a1.77,1.77,0,0,0,.76,2.18l4,2.18a1.7,1.7,0,0,0,2.18-.5L973.62,86a13.58,13.58,0,0,0,5.21-.08l1.34,1.85a1.61,1.61,0,0,0,2.18.42l3.95-2.35a1.74,1.74,0,0,0,.67-2.18l-1-2.1A12.43,12.43,0,0,0,988.48,77l2.27-.25A1.72,1.72,0,0,0,992.26,75l-.08-4.62A1.64,1.64,0,0,0,990.66,68.81ZM979.75,79.3a7.14,7.14,0,0,1-9.91-2.43A7.21,7.21,0,0,1,972.28,67a7.14,7.14,0,0,1,9.91,2.43A7.23,7.23,0,0,1,979.75,79.3Z" transform="translate(-265.31 141.55)"/><path d="M440-75.61,443.12-77a19.79,19.79,0,0,0,6.72,3.86l.34,3.36a2.46,2.46,0,0,0,2.43,2.27h6.72a2.46,2.46,0,0,0,2.43-2.27l.34-3.36A19.79,19.79,0,0,0,468.81-77l3.11,1.43a2.54,2.54,0,0,0,3.19-1l3.36-5.88a2.43,2.43,0,0,0-.76-3.27l-2.77-1.93a19.43,19.43,0,0,0,.42-3.86,19.43,19.43,0,0,0-.42-3.86l2.77-1.93a2.61,2.61,0,0,0,.76-3.27l-3.36-5.88a2.54,2.54,0,0,0-3.19-1L468.72-106a19.79,19.79,0,0,0-6.72-3.86l-.34-3.36a2.46,2.46,0,0,0-2.43-2.27h-6.72a2.46,2.46,0,0,0-2.43,2.27l-.34,3.36A19.79,19.79,0,0,0,443-106l-3.11-1.43a2.54,2.54,0,0,0-3.19,1l-3.36,5.88a2.43,2.43,0,0,0,.76,3.27l2.77,1.93a19.43,19.43,0,0,0-.42,3.86,19.43,19.43,0,0,0,.42,3.86l-2.77,1.93a2.61,2.61,0,0,0-.76,3.27l3.36,5.88A2.75,2.75,0,0,0,440-75.61Zm15.87-26.53a10.68,10.68,0,0,1,10.66,10.66,10.68,10.68,0,0,1-10.66,10.66,10.68,10.68,0,0,1-10.66-10.66A10.68,10.68,0,0,1,455.88-102.14Z" transform="translate(-265.31 141.55)"/><path d="M490.38-130.27l-2.27-.17a12,12,0,0,0-1.09-2.35,13.78,13.78,0,0,0-1.6-2.1l.92-2.1a1.77,1.77,0,0,0-.76-2.18l-4-2.18a1.7,1.7,0,0,0-2.18.5l-1.26,1.93a13.58,13.58,0,0,0-5.21.08l-1.34-1.85a1.61,1.61,0,0,0-2.18-.42l-4,2.35a1.74,1.74,0,0,0-.67,2.18l1,2.1a12.43,12.43,0,0,0-2.52,4.62l-2.27.17A1.72,1.72,0,0,0,459.4-128l.08,4.62a1.72,1.72,0,0,0,1.6,1.68l2.27.17a12,12,0,0,0,1.09,2.35,9.89,9.89,0,0,0,1.6,2.1l-.92,2.1a1.77,1.77,0,0,0,.76,2.18l4,2.18a1.7,1.7,0,0,0,2.18-.5l1.26-1.93a13.58,13.58,0,0,0,5.21-.08l1.34,1.85a1.61,1.61,0,0,0,2.18.42l3.95-2.35a1.74,1.74,0,0,0,.67-2.18l-1-2.1a12.43,12.43,0,0,0,2.52-4.62l2.27-.25a1.72,1.72,0,0,0,1.51-1.68l-.08-4.62A1.64,1.64,0,0,0,490.38-130.27Zm-10.91,10.49a7.14,7.14,0,0,1-9.91-2.43,7.21,7.21,0,0,1,2.43-9.91,7.14,7.14,0,0,1,9.91,2.43A7.23,7.23,0,0,1,479.47-119.77Z" transform="translate(-265.31 141.55)"/></svg>